<svg width="8" height="8" viewBox="0 0 8 8" fill="none" xmlns="http://www.w3.org/2000/svg">
<g clip-path="url(#clip0_2102_831)">
<path d="M5.45973 1.09973H2.45973C1.6313 1.09973 0.959732 1.7713 0.959732 2.59973V5.59973C0.959732 6.42816 1.6313 7.09973 2.45973 7.09973H5.45973C6.28816 7.09973 6.95973 6.42816 6.95973 5.59973V2.59973C6.95973 1.7713 6.28816 1.09973 5.45973 1.09973Z" stroke="#EEEEEE" stroke-opacity="0.75" stroke-width="0.6" stroke-linecap="round" stroke-linejoin="round"/>
<path d="M5.15964 3.91049C5.19666 4.16017 5.15401 4.41516 5.03776 4.6392C4.92151 4.86324 4.73758 5.04492 4.51212 5.1584C4.28667 5.27188 4.03117 5.31137 3.78197 5.27127C3.53277 5.23118 3.30256 5.11352 3.12409 4.93504C2.94561 4.75657 2.82795 4.52636 2.78786 4.27716C2.74776 4.02796 2.78725 3.77246 2.90073 3.54701C3.01421 3.32155 3.19589 3.13762 3.41993 3.02137C3.64397 2.90512 3.89896 2.86247 4.14864 2.89949C4.40331 2.93726 4.63909 3.05593 4.82114 3.23799C5.0032 3.42004 5.12187 3.65582 5.15964 3.91049Z" stroke="#EEEEEE" stroke-opacity="0.75" stroke-width="0.6" stroke-linecap="round" stroke-linejoin="round"/>
<path d="M5.60977 2.44979H5.61352" stroke="#EEEEEE" stroke-opacity="0.75" stroke-width="0.6" stroke-linecap="round" stroke-linejoin="round"/>
</g>
<defs>
<clipPath id="clip0_2102_831">
<rect width="7.2" height="7.2" fill="white" transform="translate(0.359711 0.499534)"/>
</clipPath>
</defs>
</svg>
