<svg width="153" height="116" viewBox="0 0 153 116" fill="none" xmlns="http://www.w3.org/2000/svg">
<path d="M19.8049 69.8233C37.9772 61.2807 53.4453 48.7889 68.9039 36.9115C81.0536 27.5763 93.7267 18.2772 106.864 9.92435C109.456 8.27616 113.233 5.12043 116.313 5.94024C119.365 6.75262 120.774 9.73717 123.052 11.3429C128.662 15.2971 133.496 20.3555 137.88 25.2498C142.705 30.6375 133.748 34.9215 127.948 39.4522C121.361 44.5985 115.022 49.8548 107.957 54.5362C101.242 58.986 95.5454 64.7206 89.2847 69.6078C79.743 77.0562 70.7018 84.8608 61.1842 92.3129C55.5185 96.7491 49.1959 100.561 43.7009 105.113C41.7755 106.708 39.9172 108.739 37.7592 110.13C36.0261 111.246 34.3096 107.891 33.8336 107.276C30.055 102.396 23.5528 99.4961 19.9028 94.358C17.608 91.1274 16.3407 86.9651 13.4538 84.1034C12.0756 82.7373 8.57666 79.7069 10.6359 77.2553C12.7384 74.7521 17.9513 73.0819 20.9406 71.123C23.2708 69.596 26.1069 67.7154 28.6796 66.547C30.5494 65.6978 32.4566 64.3502 34.1715 63.2848C38.6844 60.481 34.1075 61.976 31.1543 63.1607" stroke="#00ADB5" stroke-opacity="0.5" stroke-linecap="round" stroke-linejoin="round"/>
<path d="M20.9682 80.1045C30.7426 84.1576 39.1099 90.6701 46.2697 97.2151C46.4511 97.3809 48.2907 98.276 47.9289 98.724C47.2302 99.5891 40.9159 96.7445 40.3151 96.456" stroke="#00ADB5" stroke-opacity="0.5" stroke-linecap="round" stroke-linejoin="round"/>
<path d="M32.4317 71.3786C40.6735 72.3862 45.2285 75.5492 51.5473 78.7716C54.362 80.2069 57.2577 81.4626 59.7151 83.246C60.8691 84.0834 61.6083 85.2736 62.6534 86.1989C64.0859 87.4672 57.8479 85.0785 57.1119 84.8053" stroke="#00ADB5" stroke-opacity="0.5" stroke-linecap="round" stroke-linejoin="round"/>
<path d="M45.6208 64.1324C50.9772 67.7903 56.3732 71.3849 61.9406 74.848C64.0557 76.1636 66.5045 77.3142 68.2623 78.9458C71.3826 81.8423 67.2906 78.0887 65.8666 77.0592" stroke="#00ADB5" stroke-opacity="0.5" stroke-linecap="round" stroke-linejoin="round"/>
<path d="M54.5435 59.0746C58.6624 60.7408 62.9874 62.3181 66.3241 64.8131C67.6928 65.8366 68.7701 67.103 70.2572 68.0265C72.0892 69.1643 73.6388 70.5574 75.4894 71.6555C78.1246 73.2192 78.4836 73.7216 75.3707 71.7374" stroke="#00ADB5" stroke-opacity="0.5" stroke-linecap="round" stroke-linejoin="round"/>
<path d="M66.1896 51.523C70.6384 54.0461 74.7172 56.6575 78.2733 59.9448C79.8482 61.4008 81.0369 63.1519 83.1517 64.1674C85.089 65.0977 86.5137 65.2696 84.3196 63.651" stroke="#00ADB5" stroke-opacity="0.5" stroke-linecap="round" stroke-linejoin="round"/>
<path d="M77.4516 43.8949C81.3837 46.0087 85.2868 47.9032 88.2509 50.8611C89.6078 52.2151 90.6025 53.8346 92.1593 55.0493C95.3206 57.516 93.0733 56.3457 90.7686 54.6893" stroke="#00ADB5" stroke-opacity="0.5" stroke-linecap="round" stroke-linejoin="round"/>
<path d="M87.9422 36.1137C93.324 40.0763 97.6159 44.9429 103.016 48.8474C106.653 51.4764 101.516 47.1863 100.685 46.415" stroke="#00ADB5" stroke-opacity="0.5" stroke-linecap="round" stroke-linejoin="round"/>
<path d="M100.353 29.4721C105.659 27.2379 111.198 24.6627 114.492 20.2862C115.4 19.0793 116.504 17.9936 116.99 16.6938C117.656 14.9088 117.469 15.6634 115.711 16.9671" stroke="#00ADB5" stroke-opacity="0.5" stroke-linecap="round" stroke-linejoin="round"/>
<path d="M107.742 34.1607C112.182 30.7084 117.135 26.9257 120.613 22.7851C122.348 20.7198 125.471 18.0863 121.173 21.2738" stroke="#00ADB5" stroke-opacity="0.5" stroke-linecap="round" stroke-linejoin="round"/>
<path d="M119.76 39.0089C123.871 35.3955 127.547 32.0513 131.387 28.3242C132.627 27.12 136.143 25.344 132.029 26.65" stroke="#00ADB5" stroke-opacity="0.5" stroke-linecap="round" stroke-linejoin="round"/>
<path d="M117.07 37.7169C121.275 34.6435 126.041 31.0795 129.546 27.4007C130.481 26.4194 131.243 25.3575 132.114 24.349C133.574 22.6598 133.58 23.1743 131.671 23.5448" stroke="#00ADB5" stroke-opacity="0.5" stroke-linecap="round" stroke-linejoin="round"/>
<path d="M30.5809 84.2857C50.5614 75.9018 57.6363 58.4279 74.5446 47.1005C76.6014 45.7225 78.3208 44.2543 80.6425 43.1999C82.1949 42.4949 84.0551 42.0323 85.496 41.1913C86.3749 40.6782 93.769 35.7303 88.7946 37.9894" stroke="#00ADB5" stroke-opacity="0.5" stroke-linecap="round" stroke-linejoin="round"/>
<path d="M22.3136 80.7504C24.7503 78.4128 26.9043 76.4044 29.8363 74.5828C30.3172 74.284 31.0116 74.165 31.4249 73.7915C32.2435 73.0518 33.479 71.9661 33.8774 71.0856C35.4465 67.6182 40.7524 67.6327 43.8491 65.6354C46.7949 63.7353 49.6419 61.827 52.6381 59.9401C55.9391 57.8612 57.5664 56.1801 60.3331 53.6802C62.8746 51.3839 65.3533 49.0715 68.0117 46.8693C70.1864 45.0677 73.4578 43.2843 74.9838 41.1193C76.7061 38.676 80.6585 35.6576 83.8292 35.7197C84.9183 35.741 92.5402 38.627 87.5508 36.7947" stroke="#00ADB5" stroke-opacity="0.5" stroke-linecap="round" stroke-linejoin="round"/>
<path d="M38.4688 86.9876C53.6782 79.2867 63.4979 65.1107 74.595 53.9901C78.6824 49.894 84.1301 46.8663 88.3756 42.8159C90.1915 41.0834 93.9538 39.0379 89.8416 39.5246" stroke="#00ADB5" stroke-opacity="0.5" stroke-linecap="round" stroke-linejoin="round"/>
<path d="M43.0729 90.1758C56.9816 82.2843 66.9805 69.3802 77.7691 58.8333C82.6773 54.035 87.4481 49.1631 92.4044 44.394C94.664 42.2197 98.2998 40.6124 93.5738 43.1088" stroke="#00ADB5" stroke-opacity="0.5" stroke-linecap="round" stroke-linejoin="round"/>
<path d="M47.2637 96.3166C56.2706 89.0384 63.7834 81.4317 71.4532 73.3207C76.1168 68.3888 80.3102 62.9626 85.6156 58.3979C88.6597 55.7789 91.1326 52.8344 93.9453 50.1042C95.0784 49.0044 95.9256 47.7759 97.0851 46.6812C99.697 44.2155 97.8122 46.3927 96.0407 47.77" stroke="#00ADB5" stroke-opacity="0.5" stroke-linecap="round" stroke-linejoin="round"/>
<path d="M48.7853 98.8937C53.2696 95.2576 59.6169 91.5302 62.8877 87.0985C64.0752 85.4896 67.0013 81.5983 68.8275 80.4907C71.2416 79.0264 72.6708 76.3264 74.5311 74.5208C76.4683 72.6404 78.3639 70.8049 80.4344 68.9909C82.376 67.2897 83.2988 64.5825 85.6231 63.0453C88.2124 61.333 89.6859 58.9662 91.8311 57.0279C93.6878 55.3503 97.042 53.4517 99.2464 52.0822C100.468 51.3234 101.379 50.3734 102.73 49.7599C105.468 48.5164 103.709 49.1929 101.334 49.3883" stroke="#00ADB5" stroke-opacity="0.5" stroke-linecap="round" stroke-linejoin="round"/>
<path d="M99.8598 30.7015C103.104 31.036 107.158 31.0612 110 32.1852C111.834 32.9107 113.414 33.6683 110.074 32.3473" stroke="#00ADB5" stroke-opacity="0.5" stroke-linecap="round" stroke-linejoin="round"/>
<path d="M103.956 25.8248C108.586 26.2927 111.799 27.0386 115.404 28.6422C117.761 29.6907 117.404 29.3672 114.934 28.3805" stroke="#00ADB5" stroke-opacity="0.5" stroke-linecap="round" stroke-linejoin="round"/>
<path d="M110.37 20.6493C114.207 22.0429 117.887 23.7029 121.896 24.8413C124.255 25.5109 122.957 25.591 121.139 25.0598" stroke="#00ADB5" stroke-opacity="0.5" stroke-linecap="round" stroke-linejoin="round"/>
<path d="M114.17 16.6615C118.256 17.7561 122.006 18.8818 125.694 20.4213C127.376 21.1233 125.727 21.3656 124.458 20.7872" stroke="#00ADB5" stroke-opacity="0.5" stroke-linecap="round" stroke-linejoin="round"/>
<path d="M102.191 28.8885C105.877 25.4137 109.551 22.1008 112.957 18.5809C113.924 17.5808 119.752 11.9634 117.177 14.7927" stroke="#00ADB5" stroke-opacity="0.5" stroke-linecap="round" stroke-linejoin="round"/>
<path d="M104.849 33.9663C109.5 30.4829 116.159 25.7872 118.151 21.138C118.737 19.7698 119.793 18.3496 121.198 17.2963C122.622 16.2281 124.035 15.6594 121.883 17.4321" stroke="#00ADB5" stroke-opacity="0.5" stroke-linecap="round" stroke-linejoin="round"/>
<path d="M101.468 34.2445C106.526 29.8295 110.749 26.7699 113.969 21.6683C114.805 20.3433 115.709 19.2216 116.933 18.1156C118.23 16.9436 120.02 15.7816 117.535 17.8979" stroke="#00ADB5" stroke-opacity="0.5" stroke-linecap="round" stroke-linejoin="round"/>
<path d="M117.969 34.2922C119.9 35.1192 121.847 35.8678 123.884 36.5078C124.725 36.7722 123.72 36.1909 123.357 36.1189" stroke="#00ADB5" stroke-opacity="0.5" stroke-linecap="round" stroke-linejoin="round"/>
<path d="M122.749 28.6025C122.876 28.6828 130.262 33.3983 128.988 32.3047" stroke="#00ADB5" stroke-opacity="0.5" stroke-linecap="round" stroke-linejoin="round"/>
<path d="M127.885 26.0179C129.493 27.2108 134.445 30.6716 132.678 29.623" stroke="#00ADB5" stroke-opacity="0.5" stroke-linecap="round" stroke-linejoin="round"/>
<path d="M115.245 36.7862C118.543 34.2147 125.711 29.0493 127.794 25.431C128.616 24.0052 131.755 21.9396 128.771 24.1076" stroke="#00ADB5" stroke-opacity="0.5" stroke-linecap="round" stroke-linejoin="round"/>
<path d="M115.528 37.4113C115.787 37.5622 120.81 41.8711 122.363 39.3351C123.155 38.0407 124.187 36.3548 125.806 35.5088C128.647 34.0248 129.66 30.2392 132.539 28.9318C135.805 27.4487 135.78 25.5776 132.98 25.2265C131.879 25.0885 133.027 23.1859 131.827 23.4598C130.728 23.7104 130.2 23.4536 128.966 23.7671" stroke="#00ADB5" stroke-opacity="0.5" stroke-linecap="round" stroke-linejoin="round"/>
<path d="M99.5758 30.0765C101.116 32.8683 101.334 33.9186 104.321 34.8204C105.127 35.0638 106.306 34.469 106.917 34.6609C108.125 35.0406 110.656 34.7679 111.745 33.7112C113.934 31.5864 114.813 30.2748 117.922 28.7833C119.883 27.8424 121.618 25.9461 122.678 24.4166C123.843 22.7357 125.711 21.3581 126.929 19.6652C127.448 18.9444 124.259 17.5945 124.39 16.4332C124.427 16.1039 120.355 16.5502 119.716 16.3493C118.941 16.106 118.631 15.6756 118.334 15.0218C117.9 14.067 116.703 15.4469 115.143 15.7167" stroke="#00ADB5" stroke-opacity="0.5" stroke-linecap="round" stroke-linejoin="round"/>
<path d="M26.409 75.8737C30.8397 76.7701 34.6214 78.1423 38.5068 79.6945C41.88 81.0421 45.8377 81.5182 49.1955 82.8145C51.586 83.7374 53.8571 86.2011 55.4931 87.803C56.0383 88.3368 56.4295 88.8496 56.7809 89.4806C57.5873 90.9284 57.048 87.2705 56.9972 86.8686" stroke="#00ADB5" stroke-opacity="0.5" stroke-linecap="round" stroke-linejoin="round"/>
<path d="M75.0516 42.4709C76.184 43.4109 80.5474 48.8117 80.1485 44.4296" stroke="#00ADB5" stroke-opacity="0.5" stroke-linecap="round" stroke-linejoin="round"/>
</svg>
