<svg width="8" height="8" viewBox="0 0 8 8" fill="none" xmlns="http://www.w3.org/2000/svg">
<g clip-path="url(#clip0_2102_816)">
<path d="M6.86069 5.47608V6.37608C6.86103 6.45963 6.84392 6.54233 6.81044 6.61889C6.77697 6.69544 6.72788 6.76416 6.66631 6.82064C6.60475 6.87712 6.53206 6.92013 6.45292 6.94689C6.37377 6.97366 6.2899 6.9836 6.20669 6.97608C5.28354 6.87577 4.39679 6.56032 3.61769 6.05508C2.89284 5.59448 2.27829 4.97993 1.81769 4.25508C1.31068 3.47244 0.995164 2.58138 0.896692 1.65408C0.889195 1.57112 0.899054 1.48751 0.925642 1.40857C0.952229 1.32963 0.994963 1.25709 1.05112 1.19557C1.10728 1.13405 1.17563 1.08489 1.25183 1.05124C1.32802 1.01758 1.41039 1.00016 1.49369 1.00008H2.39369C2.53928 0.998648 2.68043 1.0502 2.79082 1.14514C2.90121 1.24008 2.97331 1.37191 2.99369 1.51608C3.03168 1.8041 3.10213 2.0869 3.20369 2.35908C3.24405 2.46646 3.25279 2.58316 3.22886 2.69534C3.20494 2.80753 3.14935 2.91051 3.06869 2.99208L2.68769 3.37308C3.11476 4.12414 3.73663 4.74601 4.48769 5.17308L4.86869 4.79208C4.95026 4.71142 5.05324 4.65584 5.16543 4.63191C5.27762 4.60798 5.39431 4.61672 5.50169 4.65708C5.77387 4.75865 6.05667 4.82909 6.34469 4.86708C6.49042 4.88764 6.62351 4.96104 6.71865 5.07333C6.81379 5.18562 6.86434 5.32895 6.86069 5.47608Z" stroke="#EEEEEE" stroke-width="0.6" stroke-linecap="round" stroke-linejoin="round"/>
</g>
<defs>
<clipPath id="clip0_2102_816">
<rect width="7.2" height="7.2" fill="white" transform="translate(0.260437 0.399794)"/>
</clipPath>
</defs>
</svg>
