<svg width="9" height="8" viewBox="0 0 9 8" fill="none" xmlns="http://www.w3.org/2000/svg">
<g clip-path="url(#clip0_2102_838)">
<path d="M7.85998 1.40026C7.57269 1.6029 7.25461 1.75789 6.91798 1.85926C6.7373 1.65151 6.49718 1.50427 6.23009 1.43744C5.963 1.37061 5.68183 1.38742 5.4246 1.4856C5.16738 1.58377 4.94651 1.75858 4.79187 1.98638C4.63724 2.21417 4.55629 2.48396 4.55998 2.75926V3.05926C4.03277 3.07293 3.51036 2.95601 3.03928 2.7189C2.5682 2.48179 2.16307 2.13185 1.85998 1.70026C1.85998 1.70026 0.659979 4.40026 3.35998 5.60026C2.74214 6.01965 2.00613 6.22994 1.25998 6.20026C3.95998 7.70026 7.25998 6.20026 7.25998 2.75026C7.2597 2.6667 7.25167 2.58334 7.23598 2.50126C7.54216 2.19931 7.75823 1.81808 7.85998 1.40026V1.40026Z" stroke="#EEEEEE" stroke-opacity="0.75" stroke-width="0.6" stroke-linecap="round" stroke-linejoin="round"/>
</g>
<defs>
<clipPath id="clip0_2102_838">
<rect width="7.2" height="7.2" fill="white" transform="translate(0.959534 0.499534)"/>
</clipPath>
</defs>
</svg>
