<svg width="8" height="8" viewBox="0 0 8 8" fill="none" xmlns="http://www.w3.org/2000/svg">
<g clip-path="url(#clip0_2102_841)">
<path d="M7.32158 2.42595C7.28594 2.28358 7.21336 2.15313 7.11117 2.04778C7.00898 1.94243 6.8808 1.86591 6.73958 1.82595C6.22358 1.69995 4.15958 1.69995 4.15958 1.69995C4.15958 1.69995 2.09558 1.69995 1.57958 1.83795C1.43835 1.87791 1.31017 1.95443 1.20798 2.05978C1.10579 2.16513 1.03321 2.29558 0.997577 2.43795C0.903141 2.96162 0.856948 3.49285 0.859577 4.02495C0.856211 4.56107 0.902407 5.09634 0.997577 5.62395C1.03686 5.76191 1.11107 5.8874 1.21302 5.9883C1.31497 6.0892 1.44122 6.1621 1.57958 6.19995C2.09558 6.33795 4.15958 6.33795 4.15958 6.33795C4.15958 6.33795 6.22358 6.33795 6.73958 6.19995C6.8808 6.16 7.00898 6.08348 7.11117 5.97813C7.21336 5.87278 7.28594 5.74233 7.32158 5.59995C7.41528 5.08023 7.46147 4.55305 7.45958 4.02495C7.46294 3.48884 7.41675 2.95356 7.32158 2.42595V2.42595Z" stroke="#EEEEEE" stroke-opacity="0.75" stroke-width="0.6" stroke-linecap="round" stroke-linejoin="round"/>
<path d="M3.48412 5.00561L5.20912 4.02461L3.48412 3.04361V5.00561Z" stroke="#EEEEEE" stroke-opacity="0.75" stroke-width="0.6" stroke-linecap="round" stroke-linejoin="round"/>
</g>
<defs>
<clipPath id="clip0_2102_841">
<rect width="7.2" height="7.2" fill="white" transform="translate(0.559341 0.499653)"/>
</clipPath>
</defs>
</svg>
